<svg xmlns="http://www.w3.org/2000/svg" xmlns:xlink="http://www.w3.org/1999/xlink" width="500" zoomAndPan="magnify" viewBox="0 0 375 374.999991" height="500" preserveAspectRatio="xMidYMid meet" version="1.0"><path fill="#a63a50" d="M 29.09375 169.03125 L 121.46875 261.269531 L 259.324219 119.375 L 168.863281 28.90625 L 168.855469 28.917969 C 150.949219 11.050781 126.238281 0 98.957031 0 C 44.3125 0 0 44.3125 0 98.957031 C 0 126.332031 11.125 151.113281 29.09375 169.03125 Z M 29.09375 169.03125 " fill-opacity="1" fill-rule="nonzero"/><path fill="#f0e7d8" d="M 209.15625 348.824219 C 226.78125 365.03125 250.21875 375 276.042969 375 C 330.699219 375 375 330.699219 375 276.042969 C 375 250.21875 365.019531 226.769531 348.8125 209.15625 L 348.957031 209.011719 L 259.324219 119.375 L 121.46875 261.269531 Z M 209.15625 348.824219 " fill-opacity="1" fill-rule="nonzero"/></svg>