<svg xmlns="http://www.w3.org/2000/svg" xmlns:xlink="http://www.w3.org/1999/xlink" width="750" zoomAndPan="magnify" viewBox="0 0 562.5 195.000001" height="260" preserveAspectRatio="xMidYMid meet" version="1.0"><defs><g/><clipPath id="56e8b13dbd"><path d="M 243 87 L 267 87 L 267 108 L 243 108 Z M 243 87 " clip-rule="nonzero"/></clipPath><clipPath id="b1e0b71583"><path d="M 293.253906 97.085938 L 266.320312 124.019531 L 239.386719 97.085938 L 266.320312 70.152344 Z M 293.253906 97.085938 " clip-rule="nonzero"/></clipPath><clipPath id="59af177515"><path d="M 293.253906 97.085938 L 266.320312 124.019531 L 239.386719 97.085938 L 266.320312 70.152344 Z M 293.253906 97.085938 " clip-rule="nonzero"/></clipPath><clipPath id="345daafce1"><path d="M 266 87 L 290 87 L 290 108 L 266 108 Z M 266 87 " clip-rule="nonzero"/></clipPath><clipPath id="838a032250"><path d="M 293.253906 97.085938 L 266.320312 124.019531 L 239.386719 97.085938 L 266.320312 70.152344 Z M 293.253906 97.085938 " clip-rule="nonzero"/></clipPath><clipPath id="3d0a4f5edb"><path d="M 293.253906 97.085938 L 266.320312 124.019531 L 239.386719 97.085938 L 266.320312 70.152344 Z M 293.253906 97.085938 " clip-rule="nonzero"/></clipPath></defs><g fill="#a63a50" fill-opacity="1"><g transform="translate(-1.469746, 125.468576)"><g><path d="M 33.515625 0.765625 C 27.648438 0.765625 22.53125 -0.488281 18.15625 -3 C 13.78125 -5.507812 10.421875 -9.078125 8.078125 -13.703125 C 5.742188 -18.335938 4.578125 -23.726562 4.578125 -29.875 C 4.578125 -36.03125 5.742188 -41.40625 8.078125 -46 C 10.421875 -50.601562 13.78125 -54.160156 18.15625 -56.671875 C 22.53125 -59.179688 27.648438 -60.4375 33.515625 -60.4375 C 37.523438 -60.4375 41.304688 -59.8125 44.859375 -58.5625 C 48.410156 -57.320312 51.398438 -55.578125 53.828125 -53.328125 L 50.1875 -45.375 C 47.476562 -47.507812 44.796875 -49.070312 42.140625 -50.0625 C 39.492188 -51.050781 36.675781 -51.546875 33.6875 -51.546875 C 27.925781 -51.546875 23.476562 -49.679688 20.34375 -45.953125 C 17.21875 -42.234375 15.65625 -36.875 15.65625 -29.875 C 15.65625 -22.820312 17.21875 -17.429688 20.34375 -13.703125 C 23.476562 -9.984375 27.925781 -8.125 33.6875 -8.125 C 36.675781 -8.125 39.492188 -8.617188 42.140625 -9.609375 C 44.796875 -10.597656 47.476562 -12.160156 50.1875 -14.296875 L 53.828125 -6.34375 C 51.398438 -4.09375 48.410156 -2.34375 44.859375 -1.09375 C 41.304688 0.144531 37.523438 0.765625 33.515625 0.765625 Z M 33.515625 0.765625 "/></g></g></g><g fill="#a63a50" fill-opacity="1"><g transform="translate(55.914598, 125.468576)"><g><path d="M 26.65625 0.765625 C 22.09375 0.765625 17.804688 0.144531 13.796875 -1.09375 C 9.785156 -2.34375 6.398438 -4.09375 3.640625 -6.34375 L 7.28125 -14.296875 C 10.15625 -12.097656 13.1875 -10.488281 16.375 -9.46875 C 19.5625 -8.457031 23.019531 -7.953125 26.75 -7.953125 C 30.863281 -7.953125 34.035156 -8.671875 36.265625 -10.109375 C 38.492188 -11.546875 39.609375 -13.566406 39.609375 -16.171875 C 39.609375 -18.421875 38.578125 -20.140625 36.515625 -21.328125 C 34.460938 -22.515625 31.035156 -23.644531 26.234375 -24.71875 C 21.273438 -25.789062 17.242188 -27.03125 14.140625 -28.4375 C 11.035156 -29.851562 8.691406 -31.660156 7.109375 -33.859375 C 5.523438 -36.054688 4.734375 -38.847656 4.734375 -42.234375 C 4.734375 -45.734375 5.691406 -48.863281 7.609375 -51.625 C 9.535156 -54.394531 12.242188 -56.554688 15.734375 -58.109375 C 19.234375 -59.660156 23.269531 -60.4375 27.84375 -60.4375 C 32.019531 -60.4375 36 -59.800781 39.78125 -58.53125 C 43.5625 -57.257812 46.664062 -55.523438 49.09375 -53.328125 L 45.453125 -45.375 C 40.148438 -49.601562 34.28125 -51.71875 27.84375 -51.71875 C 24.007812 -51.71875 20.976562 -50.941406 18.75 -49.390625 C 16.519531 -47.835938 15.40625 -45.675781 15.40625 -42.90625 C 15.40625 -40.59375 16.390625 -38.816406 18.359375 -37.578125 C 20.335938 -36.335938 23.695312 -35.179688 28.4375 -34.109375 C 33.457031 -32.984375 37.535156 -31.726562 40.671875 -30.34375 C 43.804688 -28.957031 46.203125 -27.191406 47.859375 -25.046875 C 49.523438 -22.910156 50.359375 -20.203125 50.359375 -16.921875 C 50.359375 -13.367188 49.410156 -10.253906 47.515625 -7.578125 C 45.628906 -4.898438 42.894531 -2.835938 39.3125 -1.390625 C 35.726562 0.046875 31.507812 0.765625 26.65625 0.765625 Z M 26.65625 0.765625 "/></g></g></g><g fill="#a63a50" fill-opacity="1"><g transform="translate(109.913436, 125.468576)"><g><path d="M 56.203125 -32.25 L 56.203125 -3.640625 C 53.492188 -2.285156 50.207031 -1.210938 46.34375 -0.421875 C 42.476562 0.367188 38.539062 0.765625 34.53125 0.765625 C 28.382812 0.765625 23.050781 -0.460938 18.53125 -2.921875 C 14.019531 -5.378906 10.566406 -8.90625 8.171875 -13.5 C 5.773438 -18.09375 4.578125 -23.550781 4.578125 -29.875 C 4.578125 -36.132812 5.773438 -41.5625 8.171875 -46.15625 C 10.566406 -50.757812 13.976562 -54.289062 18.40625 -56.75 C 22.832031 -59.207031 28.039062 -60.4375 34.03125 -60.4375 C 38.195312 -60.4375 42.113281 -59.828125 45.78125 -58.609375 C 49.457031 -57.398438 52.507812 -55.664062 54.9375 -53.40625 L 51.296875 -45.53125 C 48.523438 -47.675781 45.800781 -49.210938 43.125 -50.140625 C 40.445312 -51.078125 37.5 -51.546875 34.28125 -51.546875 C 28.125 -51.546875 23.476562 -49.722656 20.34375 -46.078125 C 17.21875 -42.441406 15.65625 -37.039062 15.65625 -29.875 C 15.65625 -15.207031 22.085938 -7.875 34.953125 -7.875 C 38.796875 -7.875 42.632812 -8.410156 46.46875 -9.484375 L 46.46875 -24.46875 L 33.609375 -24.46875 L 33.609375 -32.25 Z M 56.203125 -32.25 "/></g></g></g><g fill="#a63a50" fill-opacity="1"><g transform="translate(171.952848, 125.468576)"><g><path d="M 33.015625 0.765625 C 27.203125 0.765625 22.164062 -0.472656 17.90625 -2.953125 C 13.644531 -5.441406 10.359375 -9 8.046875 -13.625 C 5.734375 -18.25 4.578125 -23.664062 4.578125 -29.875 C 4.578125 -36.082031 5.71875 -41.484375 8 -46.078125 C 10.28125 -50.679688 13.566406 -54.222656 17.859375 -56.703125 C 22.148438 -59.191406 27.203125 -60.4375 33.015625 -60.4375 C 38.828125 -60.4375 43.863281 -59.191406 48.125 -56.703125 C 52.382812 -54.222656 55.65625 -50.679688 57.9375 -46.078125 C 60.21875 -41.484375 61.359375 -36.082031 61.359375 -29.875 C 61.359375 -23.664062 60.203125 -18.25 57.890625 -13.625 C 55.578125 -9 52.289062 -5.441406 48.03125 -2.953125 C 43.769531 -0.472656 38.765625 0.765625 33.015625 0.765625 Z M 33.015625 -7.953125 C 38.484375 -7.953125 42.753906 -9.84375 45.828125 -13.625 C 48.910156 -17.40625 50.453125 -22.820312 50.453125 -29.875 C 50.453125 -36.925781 48.910156 -42.328125 45.828125 -46.078125 C 42.753906 -49.835938 38.484375 -51.71875 33.015625 -51.71875 C 27.484375 -51.71875 23.175781 -49.835938 20.09375 -46.078125 C 17.019531 -42.328125 15.484375 -36.925781 15.484375 -29.875 C 15.484375 -22.820312 17.019531 -17.40625 20.09375 -13.625 C 23.175781 -9.84375 27.484375 -7.953125 33.015625 -7.953125 Z M 33.015625 -7.953125 "/></g></g></g><g fill="#f0e7d8" fill-opacity="1"><g transform="translate(291.645027, 131.44327)"><g><path d="M 87.859375 -18.875 C 88.585938 -18.875 89.164062 -18.535156 89.59375 -17.859375 C 90.019531 -17.179688 90.234375 -16.25 90.234375 -15.0625 C 90.234375 -12.863281 89.695312 -11.113281 88.625 -9.8125 C 85.914062 -6.539062 83.175781 -4.015625 80.40625 -2.234375 C 77.644531 -0.460938 74.375 0.421875 70.59375 0.421875 C 66.414062 0.421875 63 -0.800781 60.34375 -3.25 C 57.695312 -5.707031 55.21875 -9.535156 52.90625 -14.734375 C 51.207031 -18.453125 49.804688 -21.226562 48.703125 -23.0625 C 47.609375 -24.894531 46.523438 -26.191406 45.453125 -26.953125 C 44.378906 -27.710938 43.023438 -28.179688 41.390625 -28.359375 L 40.453125 -22.09375 C 39.273438 -14.019531 36.976562 -8.207031 33.5625 -4.65625 C 30.144531 -1.101562 25.445312 0.671875 19.46875 0.671875 C 15.570312 0.671875 12.113281 -0.269531 9.09375 -2.15625 C 6.082031 -4.050781 3.984375 -6.460938 2.796875 -9.390625 C 2.398438 -10.410156 2.203125 -11.515625 2.203125 -12.703125 C 2.203125 -14.390625 2.597656 -15.851562 3.390625 -17.09375 C 4.179688 -18.332031 5.195312 -18.953125 6.4375 -18.953125 C 7.164062 -18.953125 7.785156 -18.769531 8.296875 -18.40625 C 8.804688 -18.039062 9.285156 -17.40625 9.734375 -16.5 C 11.484375 -13.226562 13.019531 -10.941406 14.34375 -9.640625 C 15.664062 -8.347656 17.316406 -7.703125 19.296875 -7.703125 C 21.554688 -7.703125 23.488281 -8.726562 25.09375 -10.78125 C 26.707031 -12.84375 27.851562 -16.019531 28.53125 -20.3125 L 29.703125 -28.359375 L 28.359375 -28.359375 C 27.054688 -28.359375 26.035156 -28.722656 25.296875 -29.453125 C 24.566406 -30.191406 24.203125 -31.207031 24.203125 -32.5 C 24.203125 -33.96875 24.582031 -35.140625 25.34375 -36.015625 C 26.113281 -36.890625 27.0625 -37.328125 28.1875 -37.328125 L 30.984375 -37.328125 C 31.378906 -40.085938 31.660156 -42.003906 31.828125 -43.078125 L 34.453125 -62.125 C 32.984375 -62.289062 31.597656 -62.375 30.296875 -62.375 C 25.503906 -62.375 21.863281 -61.539062 19.375 -59.875 C 16.894531 -58.21875 15.65625 -55.835938 15.65625 -52.734375 C 15.65625 -51.316406 15.8125 -50.171875 16.125 -49.296875 C 16.4375 -48.421875 16.84375 -47.453125 17.34375 -46.390625 C 17.570312 -45.929688 17.6875 -45.421875 17.6875 -44.859375 C 17.6875 -43.617188 17.109375 -42.53125 15.953125 -41.59375 C 14.796875 -40.664062 13.515625 -40.203125 12.109375 -40.203125 C 10.296875 -40.203125 8.96875 -40.992188 8.125 -42.578125 C 6.4375 -45.566406 5.59375 -48.78125 5.59375 -52.21875 C 5.59375 -55.78125 6.5625 -59.023438 8.5 -61.953125 C 10.445312 -64.890625 13.394531 -67.242188 17.34375 -69.015625 C 21.300781 -70.796875 26.1875 -71.6875 32 -71.6875 C 34.53125 -71.6875 36.851562 -71.546875 38.96875 -71.265625 C 41.09375 -70.984375 43.421875 -70.445312 45.953125 -69.65625 C 48.722656 -68.8125 50.109375 -67.234375 50.109375 -64.921875 C 50.109375 -61.816406 48.78125 -60.265625 46.125 -60.265625 L 42.828125 -37.5 C 49.429688 -38.175781 54.804688 -41.007812 58.953125 -46 C 63.097656 -51 66.554688 -57.785156 69.328125 -66.359375 C 69.828125 -67.941406 70.679688 -69.15625 71.890625 -70 C 73.109375 -70.84375 74.648438 -71.265625 76.515625 -71.265625 C 78.097656 -71.265625 79.328125 -70.910156 80.203125 -70.203125 C 81.078125 -69.503906 81.515625 -68.503906 81.515625 -67.203125 C 81.515625 -66.804688 81.398438 -66.160156 81.171875 -65.265625 C 78.347656 -55.953125 74.3125 -48.554688 69.0625 -43.078125 C 63.8125 -37.609375 58.085938 -33.96875 51.890625 -32.15625 C 54.023438 -31.65625 55.785156 -30.894531 57.171875 -29.875 C 58.554688 -28.863281 59.726562 -27.609375 60.6875 -26.109375 C 61.644531 -24.617188 62.742188 -22.546875 63.984375 -19.890625 C 65.734375 -16.160156 67.367188 -13.519531 68.890625 -11.96875 C 70.421875 -10.425781 72.203125 -9.65625 74.234375 -9.65625 C 76.035156 -9.65625 77.753906 -10.257812 79.390625 -11.46875 C 81.023438 -12.675781 83.085938 -14.75 85.578125 -17.6875 C 86.253906 -18.476562 87.015625 -18.875 87.859375 -18.875 Z M 87.859375 -18.875 "/></g></g></g><g fill="#f0e7d8" fill-opacity="1"><g transform="translate(370.950526, 131.44327)"><g><path d="M 14.46875 0.421875 C 10.96875 0.421875 8.175781 -0.84375 6.09375 -3.375 C 4.007812 -5.914062 2.96875 -9.25 2.96875 -13.375 C 2.96875 -17.882812 4.007812 -22.15625 6.09375 -26.1875 C 8.175781 -30.226562 10.953125 -33.472656 14.421875 -35.921875 C 17.898438 -38.378906 21.585938 -39.609375 25.484375 -39.609375 C 26.722656 -39.609375 27.550781 -39.367188 27.96875 -38.890625 C 28.394531 -38.410156 28.75 -37.550781 29.03125 -36.3125 C 30.21875 -36.539062 31.457031 -36.65625 32.75 -36.65625 C 35.519531 -36.65625 36.90625 -35.664062 36.90625 -33.6875 C 36.90625 -32.5 36.484375 -29.675781 35.640625 -25.21875 C 34.335938 -18.726562 33.6875 -14.21875 33.6875 -11.6875 C 33.6875 -10.832031 33.894531 -10.148438 34.3125 -9.640625 C 34.738281 -9.140625 35.289062 -8.890625 35.96875 -8.890625 C 37.039062 -8.890625 38.335938 -9.578125 39.859375 -10.953125 C 41.390625 -12.335938 43.453125 -14.582031 46.046875 -17.6875 C 46.722656 -18.476562 47.484375 -18.875 48.328125 -18.875 C 49.066406 -18.875 49.644531 -18.535156 50.0625 -17.859375 C 50.488281 -17.179688 50.703125 -16.25 50.703125 -15.0625 C 50.703125 -12.8125 50.164062 -11.0625 49.09375 -9.8125 C 46.78125 -6.9375 44.320312 -4.507812 41.71875 -2.53125 C 39.125 -0.5625 36.613281 0.421875 34.1875 0.421875 C 32.332031 0.421875 30.628906 -0.210938 29.078125 -1.484375 C 27.523438 -2.753906 26.351562 -4.488281 25.5625 -6.6875 C 22.625 -1.945312 18.925781 0.421875 14.46875 0.421875 Z M 17.515625 -8.125 C 18.753906 -8.125 19.9375 -8.859375 21.0625 -10.328125 C 22.195312 -11.796875 23.019531 -13.742188 23.53125 -16.171875 L 26.65625 -31.734375 C 24.289062 -31.679688 22.101562 -30.796875 20.09375 -29.078125 C 18.09375 -27.359375 16.5 -25.085938 15.3125 -22.265625 C 14.132812 -19.441406 13.546875 -16.445312 13.546875 -13.28125 C 13.546875 -11.539062 13.894531 -10.242188 14.59375 -9.390625 C 15.300781 -8.546875 16.273438 -8.125 17.515625 -8.125 Z M 17.515625 -8.125 "/></g></g></g><g fill="#f0e7d8" fill-opacity="1"><g transform="translate(410.730236, 131.44327)"><g><path d="M 49.265625 -18.875 C 49.992188 -18.875 50.566406 -18.535156 50.984375 -17.859375 C 51.410156 -17.179688 51.625 -16.25 51.625 -15.0625 C 51.625 -12.8125 51.085938 -11.0625 50.015625 -9.8125 C 47.597656 -6.820312 44.988281 -4.367188 42.1875 -2.453125 C 39.394531 -0.535156 36.222656 0.421875 32.671875 0.421875 C 29.679688 0.421875 27.253906 -0.648438 25.390625 -2.796875 C 22.171875 -0.703125 18.8125 0.367188 15.3125 0.421875 C 14.582031 11.316406 12.921875 20.414062 10.328125 27.71875 C 7.734375 35.03125 3.925781 38.6875 -1.09375 38.6875 C -4.144531 38.6875 -6.40625 37.582031 -7.875 35.375 C -9.34375 33.175781 -10.078125 30.128906 -10.078125 26.234375 C -10.078125 20.703125 -8.804688 14.253906 -6.265625 6.890625 C -3.722656 -0.460938 0.195312 -8.570312 5.5 -17.4375 C 5.5 -25.675781 5.441406 -31.40625 5.328125 -34.625 C 5.273438 -36.257812 5.925781 -37.554688 7.28125 -38.515625 C 8.632812 -39.472656 10.328125 -39.953125 12.359375 -39.953125 C 13.546875 -39.953125 14.40625 -39.710938 14.9375 -39.234375 C 15.476562 -38.753906 15.773438 -37.804688 15.828125 -36.390625 C 15.828125 -34.984375 15.851562 -33.941406 15.90625 -33.265625 C 17.71875 -35.523438 19.5 -37.144531 21.25 -38.125 C 23 -39.113281 24.859375 -39.609375 26.828125 -39.609375 C 29.992188 -39.609375 32.578125 -38.335938 34.578125 -35.796875 C 36.578125 -33.265625 37.578125 -29.9375 37.578125 -25.8125 C 37.578125 -22.820312 37.097656 -19.914062 36.140625 -17.09375 C 35.179688 -14.269531 33.851562 -11.703125 32.15625 -9.390625 C 33.34375 -9.054688 34.332031 -8.890625 35.125 -8.890625 C 36.988281 -8.890625 38.765625 -9.566406 40.453125 -10.921875 C 42.148438 -12.273438 44.320312 -14.53125 46.96875 -17.6875 C 47.644531 -18.476562 48.410156 -18.875 49.265625 -18.875 Z M 15.75 -7.703125 C 17.78125 -8.148438 19.65625 -9.265625 21.375 -11.046875 C 23.09375 -12.828125 24.457031 -15.023438 25.46875 -17.640625 C 26.488281 -20.265625 27 -23.019531 27 -25.90625 C 27 -27.59375 26.660156 -28.875 25.984375 -29.75 C 25.304688 -30.625 24.40625 -31.0625 23.28125 -31.0625 C 21.25 -31.0625 18.789062 -28.914062 15.90625 -24.625 C 15.851562 -22.144531 15.828125 -18.507812 15.828125 -13.71875 C 15.828125 -11.113281 15.800781 -9.109375 15.75 -7.703125 Z M -0.421875 30.390625 C 1.097656 30.390625 2.363281 27.070312 3.375 20.4375 C 4.394531 13.8125 5.046875 5.5625 5.328125 -4.3125 C 2.898438 1.320312 0.984375 6.707031 -0.421875 11.84375 C -1.835938 16.976562 -2.546875 21.296875 -2.546875 24.796875 C -2.546875 26.609375 -2.332031 27.992188 -1.90625 28.953125 C -1.476562 29.910156 -0.984375 30.390625 -0.421875 30.390625 Z M -0.421875 30.390625 "/></g></g></g><g fill="#f0e7d8" fill-opacity="1"><g transform="translate(451.440962, 131.44327)"><g><path d="M 19.8125 2.28125 C 16.875 2.28125 14.628906 1.601562 13.078125 0.25 C 11.523438 -1.101562 10.75 -2.625 10.75 -4.3125 C 10.75 -5.78125 11.285156 -7.050781 12.359375 -8.125 C 13.429688 -9.195312 15.007812 -9.734375 17.09375 -9.734375 C 17.832031 -9.734375 18.691406 -9.660156 19.671875 -9.515625 C 20.660156 -9.378906 21.410156 -9.28125 21.921875 -9.21875 C 21.867188 -10.6875 21.546875 -12.066406 20.953125 -13.359375 C 20.359375 -14.660156 19.609375 -15.914062 18.703125 -17.125 C 17.796875 -18.34375 16.953125 -19.40625 16.171875 -20.3125 C 14.421875 -16.976562 12.679688 -14.210938 10.953125 -12.015625 C 9.234375 -9.816406 7.359375 -7.726562 5.328125 -5.75 C 4.316406 -4.738281 3.242188 -4.234375 2.109375 -4.234375 C 1.210938 -4.234375 0.484375 -4.554688 -0.078125 -5.203125 C -0.648438 -5.847656 -0.9375 -6.65625 -0.9375 -7.625 C -0.9375 -8.75 -0.539062 -9.789062 0.25 -10.75 L 1.359375 -12.109375 C 4.460938 -15.941406 6.800781 -19.097656 8.375 -21.578125 C 9.332031 -23.210938 10.460938 -25.398438 11.765625 -28.140625 C 13.066406 -30.878906 14.335938 -33.71875 15.578125 -36.65625 C 16.648438 -39.132812 18.878906 -40.375 22.265625 -40.375 C 23.835938 -40.375 24.9375 -40.234375 25.5625 -39.953125 C 26.1875 -39.671875 26.5 -39.21875 26.5 -38.59375 C 26.5 -38.257812 26.382812 -37.722656 26.15625 -36.984375 C 25.925781 -36.253906 25.613281 -35.519531 25.21875 -34.78125 C 24.207031 -32.75 23.703125 -31.03125 23.703125 -29.625 C 23.703125 -28.78125 24 -27.847656 24.59375 -26.828125 C 25.1875 -25.816406 26.101562 -24.546875 27.34375 -23.015625 C 29.144531 -20.648438 30.507812 -18.632812 31.4375 -16.96875 C 32.375 -15.300781 32.84375 -13.484375 32.84375 -11.515625 C 32.84375 -10.953125 32.785156 -10.160156 32.671875 -9.140625 C 35.429688 -10.210938 38.675781 -13.0625 42.40625 -17.6875 C 43.082031 -18.476562 43.84375 -18.875 44.6875 -18.875 C 45.425781 -18.875 46.003906 -18.535156 46.421875 -17.859375 C 46.847656 -17.179688 47.0625 -16.25 47.0625 -15.0625 C 47.0625 -12.914062 46.523438 -11.164062 45.453125 -9.8125 C 42.628906 -6.320312 39.929688 -3.941406 37.359375 -2.671875 C 34.796875 -1.398438 31.625 -0.707031 27.84375 -0.59375 C 25.59375 1.320312 22.914062 2.28125 19.8125 2.28125 Z M 19.8125 2.28125 "/></g></g></g><g fill="#f0e7d8" fill-opacity="1"><g transform="translate(487.581245, 131.44327)"><g><path d="M 41.8125 -18.875 C 42.539062 -18.875 43.117188 -18.535156 43.546875 -17.859375 C 43.972656 -17.179688 44.1875 -16.25 44.1875 -15.0625 C 44.1875 -12.8125 43.648438 -11.0625 42.578125 -9.8125 C 40.484375 -7.28125 37.53125 -4.941406 33.71875 -2.796875 C 29.914062 -0.648438 25.84375 0.421875 21.5 0.421875 C 15.570312 0.421875 10.972656 -1.179688 7.703125 -4.390625 C 4.429688 -7.609375 2.796875 -12.015625 2.796875 -17.609375 C 2.796875 -21.503906 3.613281 -25.128906 5.25 -28.484375 C 6.882812 -31.835938 9.15625 -34.5 12.0625 -36.46875 C 14.96875 -38.445312 18.253906 -39.4375 21.921875 -39.4375 C 25.191406 -39.4375 27.8125 -38.460938 29.78125 -36.515625 C 31.757812 -34.578125 32.75 -31.941406 32.75 -28.609375 C 32.75 -24.710938 31.351562 -21.367188 28.5625 -18.578125 C 25.769531 -15.785156 21.046875 -13.570312 14.390625 -11.9375 C 15.796875 -9.34375 18.476562 -8.046875 22.4375 -8.046875 C 24.96875 -8.046875 27.851562 -8.929688 31.09375 -10.703125 C 34.34375 -12.484375 37.15625 -14.8125 39.53125 -17.6875 C 40.207031 -18.476562 40.96875 -18.875 41.8125 -18.875 Z M 20.484375 -31.140625 C 18.390625 -31.140625 16.625 -29.925781 15.1875 -27.5 C 13.75 -25.082031 13.03125 -22.148438 13.03125 -18.703125 L 13.03125 -18.53125 C 16.363281 -19.320312 18.988281 -20.507812 20.90625 -22.09375 C 22.820312 -23.675781 23.78125 -25.507812 23.78125 -27.59375 C 23.78125 -28.664062 23.484375 -29.523438 22.890625 -30.171875 C 22.296875 -30.816406 21.492188 -31.140625 20.484375 -31.140625 Z M 20.484375 -31.140625 "/></g></g></g><g fill="#f0e7d8" fill-opacity="1"><g transform="translate(520.843854, 131.44327)"><g><path d="M 36.140625 -18.875 C 36.867188 -18.875 37.445312 -18.535156 37.875 -17.859375 C 38.300781 -17.179688 38.515625 -16.25 38.515625 -15.0625 C 38.515625 -12.8125 37.976562 -11.0625 36.90625 -9.8125 C 34.476562 -6.820312 31.835938 -4.367188 28.984375 -2.453125 C 26.140625 -0.535156 22.910156 0.421875 19.296875 0.421875 C 14.328125 0.421875 10.644531 -1.832031 8.25 -6.34375 C 5.851562 -10.863281 4.65625 -16.707031 4.65625 -23.875 C 4.65625 -30.75 5.539062 -38.585938 7.3125 -47.390625 C 9.09375 -56.203125 11.71875 -63.765625 15.1875 -70.078125 C 18.65625 -76.398438 22.789062 -79.5625 27.59375 -79.5625 C 30.300781 -79.5625 32.429688 -78.304688 33.984375 -75.796875 C 35.535156 -73.285156 36.3125 -69.6875 36.3125 -65 C 36.3125 -58.289062 34.445312 -50.503906 30.71875 -41.640625 C 27 -32.785156 21.953125 -24.007812 15.578125 -15.3125 C 15.972656 -13 16.617188 -11.347656 17.515625 -10.359375 C 18.421875 -9.378906 19.609375 -8.890625 21.078125 -8.890625 C 23.390625 -8.890625 25.421875 -9.550781 27.171875 -10.875 C 28.921875 -12.195312 31.148438 -14.46875 33.859375 -17.6875 C 34.535156 -18.476562 35.296875 -18.875 36.140625 -18.875 Z M 25.734375 -71.1875 C 24.429688 -71.1875 22.960938 -68.84375 21.328125 -64.15625 C 19.691406 -59.46875 18.253906 -53.65625 17.015625 -46.71875 C 15.773438 -39.78125 15.097656 -33.125 14.984375 -26.75 C 18.984375 -33.351562 22.164062 -39.96875 24.53125 -46.59375 C 26.90625 -53.226562 28.09375 -59.28125 28.09375 -64.75 C 28.09375 -69.039062 27.304688 -71.1875 25.734375 -71.1875 Z M 25.734375 -71.1875 "/></g></g></g><g clip-path="url(#56e8b13dbd)"><g clip-path="url(#b1e0b71583)"><g clip-path="url(#59af177515)"><path fill="#a63a50" d="M 253.617188 107.136719 L 266.875 107.125 L 266.585938 87.035156 L 253.589844 87.035156 C 251.023438 87.039062 248.453125 88.019531 246.496094 89.976562 C 242.570312 93.902344 242.570312 100.269531 246.496094 104.191406 C 248.460938 106.160156 251.039062 107.140625 253.617188 107.136719 Z M 253.617188 107.136719 " fill-opacity="1" fill-rule="nonzero"/></g></g></g><g clip-path="url(#345daafce1)"><g clip-path="url(#838a032250)"><g clip-path="url(#3d0a4f5edb)"><path fill="#f0e7d8" d="M 279.460938 107.117188 C 281.890625 107.015625 284.289062 106.046875 286.144531 104.191406 C 290.070312 100.265625 290.070312 93.902344 286.144531 89.976562 C 284.289062 88.125 281.890625 87.15625 279.460938 87.054688 L 279.460938 87.035156 L 266.585938 87.035156 L 266.875 107.125 Z M 279.460938 107.117188 " fill-opacity="1" fill-rule="nonzero"/></g></g></g></svg>